<?xml version="1.0" encoding="iso-8859-1"?>
<!-- Generator: Adobe Illustrator 19.0.0, SVG Export Plug-In . SVG Version: 6.00 Build 0)  -->
<svg version="1.1" id="Capa_1" xmlns="http://www.w3.org/2000/svg" xmlns:xlink="http://www.w3.org/1999/xlink" x="0px" y="0px"
	 viewBox="0 0 489 489" style="enable-background:new 0 0 489 489;" xml:space="preserve">
<g>
	<path style="fill:#010001;" d="M56.831,207.057c6.096-2.032,11.396-3.268,16.192-3.775c4.703-0.497,8.238-0.728,11.126-0.728
		c3.09,0,5.375,0.262,7.994,0.689l0.742-4.705c0,0-7.232-2.223-16.729-1.446l-0.747-2.56c2.949-0.625,5.162-3.242,5.162-6.376
		c0-3.6-2.919-6.518-6.519-6.518c-3.601,0-6.52,2.918-6.52,6.518c0,3.134,2.213,5.75,5.161,6.375l0.829,2.848
		c-10.083,1.393-18.112,5.333-18.112,5.333L56.831,207.057z"/>
	<path style="fill:#010001;" d="M28.224,226.315c0.235-0.301,0.467-0.587,0.697-0.866l-1.922-1.399l-3.015-2.204
		c-0.178,0.243-4.909,4.593-8.647,12.646c-0.162-0.254-0.347-0.501-0.559-0.735c-1.12-1.236-2.689-1.85-4.675-1.816
		c-0.03,0.001-0.059,0.001-0.088,0.001c-1.241,0-2.082-0.42-2.642-0.914c0.552-0.702,0.883-1.585,0.883-2.547
		c0-2.28-1.848-4.128-4.128-4.128c-2.28,0-4.128,1.848-4.128,4.128c0,2.281,1.849,4.128,4.128,4.128
		c0.354,0,0.695-0.049,1.023-0.132c1.017,1.129,2.632,2.113,4.992,2.071c1.212-0.02,2.093,0.292,2.696,0.953
		c0.685,0.75,0.915,1.826,0.983,2.638c-0.003,0.01-0.008,0.021-0.012,0.03c-2.695,7.344-1.92,16.479-1.92,16.479l6.52,0.259
		c0.133-3.328,0.611-9.144,2.295-13.771c3.251-8.933,7.312-14.54,7.484-14.775L28.224,226.315z"/>
	<path style="fill:#010001;" d="M140.925,208.011c-2.28,0-4.129,1.849-4.129,4.128c0,0.354,0.05,0.696,0.133,1.025
		c-1.127,1.017-2.109,2.632-2.072,4.99c0.02,1.211-0.292,2.093-0.952,2.696c-0.517,0.472-1.189,0.727-1.821,0.863
		c-4.864-6.79-10.844-10.951-10.844-10.951l-4.682,5.023c3.541,3.226,7.151,7.254,10.671,12.287
		c2.426,3.468,4.923,7.96,7.009,12.426l6.323-2.992c0,0-2.886-7.134-6.953-13.525c0.708-0.253,1.42-0.629,2.04-1.19
		c1.236-1.121,1.847-2.694,1.816-4.676c-0.02-1.291,0.408-2.157,0.914-2.729c0.702,0.552,1.585,0.883,2.547,0.883
		c2.28,0,4.128-1.848,4.128-4.128C145.053,209.86,143.204,208.011,140.925,208.011z"/>
	<path style="fill:#010001;" d="M124.522,264.806c-8.696,4.234-23.016,9.831-41.849,12.453c-7.395,1.029-14.568,1.415-21.158,1.415
		c-8.578,0-16.169-0.652-21.987-1.384c-6.64-0.835-11.832-1.861-15.012-2.574c-0.005-0.002-0.011-0.003-0.017-0.004
		c0.779,2.471,1.723,4.867,2.815,7.156c0.027,0.057,0.054,0.112,0.082,0.168c0.133,0.278,0.268,0.555,0.406,0.829
		c0.132,0.261,0.266,0.521,0.401,0.779c0.036,0.067,0.07,0.136,0.105,0.202c1.87,3.524,4.109,6.755,6.668,9.557
		c8.881,9.725,17.935,11.253,18.025,11.268l0.141,0.022l0.134,0.044c0.079,0.026,8.106,2.625,20.316,2.625
		c12.005,0,23.784-2.42,35.01-7.194c8.314-4.253,16.188-10.72,20.073-16.486c3.02-4.454,5.202-9.216,6.491-14.158
		c0.687-2.632,1.222-6.825,0.911-11.256C133.624,259.9,129.758,262.256,124.522,264.806z"/>
	<path style="fill:#010001;" d="M81.94,272.095c18.062-2.515,31.787-7.854,40.113-11.889c6.921-3.355,11.37-6.388,13.092-7.641
		c-1.711-6.345-6.432-16.301-10.768-22.499c-12.368-17.682-25.707-22.221-32.558-23.353c-2.616-0.432-4.71-0.682-7.672-0.682
		c-2.764,0-6.182,0.225-10.759,0.708c-4.588,0.486-9.7,1.687-15.626,3.672c-8.321,2.788-15.848,7.16-21.768,12.646l-0.198,0.183
		c-0.88,0.816-2.711,2.511-4.815,5.194c-0.26,0.361-3.952,5.705-6.929,13.893C21.819,248.47,22,257.423,22,257.513v0.025
		c0,2.088,0.04,4.176,0.27,6.246c0.004,0.033-0.032,0.066-0.029,0.099c0.03,0.258,0.043,0.516,0.076,0.772
		c0.002,0.018-0.004,0.036-0.002,0.053c0.183,1.441,0.402,2.872,0.692,4.287c0.003,0.001-0.007,0.002-0.007,0.003
		c0,0,0,0.001,0,0.001C27,270.091,53.116,276.107,81.94,272.095z M106.699,224.322c5.94,0,10.756,4.815,10.756,10.755
		c0,5.941-4.816,10.756-10.756,10.756c-5.94,0-10.756-4.815-10.756-10.756C95.942,229.137,100.759,224.322,106.699,224.322z
		 M55.841,223.887c9.601,0,17.384,7.783,17.384,17.383c0,9.601-7.783,17.384-17.384,17.384c-9.6,0-17.383-7.783-17.383-17.384
		C38.458,231.67,46.241,223.887,55.841,223.887z"/>
</g>
<g>
	<path style="fill:#010001;" d="M187.244,238.69c0.566,0,1.132,0.089,1.966,0.179c0.745,0.089,1.31,0.179,1.608,0.179
		c0.655,0,1.221-0.269,1.697-0.745c0.477-0.566,0.744-1.132,0.744-1.876c0-2.263-2.352-3.364-6.938-3.364
		c-2.621,0-4.705,0.387-6.194,1.042c-1.489,0.654-2.615,1.786-3.181,3.186c-0.654,1.489-0.946,3.484-0.946,5.925v2.422h-1.887
		c-2.621,0-4.051,0.963-4.051,2.928c0,0.834,0.269,1.699,0.954,2.146c0.654,0.565,1.608,0.925,2.709,0.925H176v20.939
		c0,1.608,0.322,2.829,1.065,3.573c0.744,0.833,1.664,1.22,2.797,1.22c1.221,0,2.187-0.387,2.962-1.22
		c0.745-0.834,1.175-2.056,1.175-3.573v-20.939h1.845c1.398,0,2.53-0.265,3.364-0.652c0.834-0.387,1.222-1.319,1.222-2.54
		c0-1.787-1.489-2.808-4.586-2.808H184v-1.766c0-1.817,0.118-3.038,0.477-3.871C184.863,239.167,185.726,238.69,187.244,238.69z"/>
	<path style="fill:#010001;" d="M213.984,249.38c0-1.4-0.744-2.531-2.352-3.275c-1.608-0.833-3.187-1.221-4.883-1.221
		c-1.698,0-3.008,0.388-4.05,1.221c-1.042,0.834-1.965,2.054-2.918,3.752c-0.089-1.607-0.387-2.918-0.953-3.752
		c-0.565-0.833-1.523-1.221-2.952-1.221c-2.62,0-3.876,1.786-3.876,5.36v22.243c0,1.607,0.421,2.829,1.165,3.663
		c0.745,0.833,1.716,1.22,2.847,1.22s2.113-0.387,2.888-1.22c0.745-0.834,1.1-2.056,1.1-3.663v-6.67
		c0-2.442,0.129-4.407,0.218-6.104c0.179-1.698,0.496-3.097,0.853-4.318c0.388-1.221,0.963-2.144,1.708-2.709
		c0.744-0.655,1.701-0.953,2.923-0.953c0.833,0,1.877,0.179,3.009,0.565c1.132,0.388,1.788,0.566,2.145,0.566
		c0.744,0,1.49-0.268,2.145-0.953C213.596,251.167,213.984,250.393,213.984,249.38z"/>
	<path style="fill:#010001;" d="M241.587,261.904c1.132-0.566,1.699-1.765,1.699-3.821c0-2.144-0.567-4.262-1.699-6.318
		c-1.131-2.054-2.828-3.723-4.972-5.033c-2.263-1.312-4.883-1.952-8.07-1.952c-2.441,0-4.586,0.394-6.581,1.138
		c-1.966,0.744-3.663,1.879-4.973,3.278c-1.309,1.399-2.352,3.189-3.096,5.154c-0.656,1.966-1.043,4.229-1.043,6.582
		c0,4.973,1.4,9.022,4.229,11.911c2.829,2.889,6.85,4.407,11.911,4.407c2.264,0,4.229-0.268,5.927-0.833
		c1.697-0.566,3.186-1.311,4.317-2.264c1.132-0.833,1.965-1.786,2.53-2.827c0.566-0.955,0.835-1.788,0.835-2.532
		c0-0.833-0.269-1.4-0.744-1.876c-0.477-0.476-1.132-0.655-1.966-0.655c-0.745,0-1.31,0.179-1.787,0.566
		c-1.043,0.953-1.787,1.697-2.441,2.263c-0.656,0.566-1.31,1.042-2.054,1.489c-0.745,0.476-1.489,0.833-2.264,1.042
		c-0.745,0.178-1.697,0.388-2.621,0.388c-1.399,0-2.71-0.388-3.931-1.043c-1.22-0.656-2.144-2.008-2.829-3.318
		c-0.745-1.399-1.042-3.014-1.131-5.014h15.573C238.848,262.638,240.456,262.469,241.587,261.904z M221.131,258.638
		c0.268-3,1.042-4.793,2.353-6.192c1.31-1.4,2.918-2.099,4.883-2.099c2.054,0,3.753,0.721,5.063,2.121
		c1.31,1.31,1.964,3.17,2.262,6.17H221.131z"/>
	<path style="fill:#010001;" d="M274.79,261.904c1.132-0.566,1.697-1.765,1.697-3.821c0-2.144-0.565-4.262-1.697-6.318
		c-1.132-2.054-2.829-3.723-4.974-5.033c-2.262-1.312-4.882-1.952-8.069-1.952c-2.441,0-4.586,0.394-6.581,1.138
		c-1.965,0.744-3.663,1.879-4.973,3.278s-2.352,3.189-3.097,5.154c-0.655,1.966-1.042,4.229-1.042,6.582
		c0,4.973,1.4,9.022,4.229,11.911c2.829,2.889,6.849,4.407,11.911,4.407c2.263,0,4.229-0.268,5.926-0.833
		c1.697-0.565,3.186-1.311,4.318-2.264c1.132-0.833,1.964-1.786,2.531-2.827c0.565-0.955,0.834-1.788,0.834-2.532
		c0-0.833-0.269-1.4-0.745-1.876c-0.477-0.476-1.131-0.655-1.965-0.655c-0.745,0-1.31,0.179-1.787,0.566
		c-1.042,0.953-1.787,1.697-2.441,2.263c-0.655,0.566-1.31,1.042-2.055,1.489c-0.744,0.476-1.489,0.833-2.263,1.042
		c-0.745,0.178-1.698,0.388-2.621,0.388c-1.399,0-2.709-0.388-3.93-1.043c-1.222-0.656-2.145-2.008-2.83-3.318
		c-0.744-1.399-1.042-3.014-1.131-5.014h15.573C271.991,262.638,273.569,262.469,274.79,261.904z M254.333,258.638
		c0.267-3,1.042-4.793,2.352-6.192c1.31-1.4,2.918-2.099,4.883-2.099c2.054,0,3.752,0.721,5.062,2.121
		c1.31,1.31,1.966,3.17,2.263,6.17H254.333z"/>
	<path style="fill:#010001;" d="M304.358,246.729c-2.054-1.22-4.317-1.875-6.759-1.875c-2.055,0-4.02,0.476-5.716,1.31
		c-1.608,0.834-2.883,2.263-4.883,4.05v-0.953c0-1.399-0.208-2.531-0.865-3.275c-0.745-0.745-1.519-1.131-2.62-1.131
		c-1.132,0-1.937,0.387-2.592,1.131c-0.656,0.744-0.924,1.876-0.924,3.365v34.453c0,1.697,0.194,3.097,0.67,3.93
		c0.477,0.953,1.23,1.31,2.749,1.31c2.531,0,3.581-1.786,3.581-5.24v-12c2,1.786,3.14,3.096,4.629,4.05
		c1.608,0.952,3.595,1.398,5.828,1.398c1.876,0,3.719-0.387,5.415-1.131c1.697-0.744,3.125-1.787,4.346-3.186
		c1.221-1.4,2.157-3.096,2.842-5.151s1.049-4.318,1.049-6.76c0-3.274-0.562-6.193-1.784-8.635
		C308.018,249.827,306.412,248.07,304.358,246.729z M302.006,266.442c-0.654,1.489-1.608,2.71-2.71,3.484
		c-1.132,0.744-2.352,1.131-3.663,1.131c-2.263,0-4.05-0.833-5.627-2.62c-1.489-1.787-2.264-4.228-2.264-7.415
		c0-3.364,0.744-5.925,2.264-7.682c1.489-1.697,3.364-2.621,5.538-2.621c1.4,0,2.62,0.387,3.752,1.22
		c1.132,0.834,2.056,1.966,2.621,3.485c0.655,1.489,0.952,3.275,0.952,5.449C303.048,263.078,302.662,264.954,302.006,266.442z"/>
	<path style="fill:#010001;" d="M318.98,244.765c-1.132,0-2.154,0.388-2.839,1.221c-0.744,0.834-1.141,1.966-1.141,3.573v22.81
		c0,1.608,0.397,2.71,1.141,3.573c0.745,0.834,1.703,1.222,2.835,1.222c1.131,0,2.132-0.388,2.906-1.222
		c0.744-0.834,1.119-2.054,1.119-3.663v-23.078c0-1.399-0.372-2.531-1.116-3.275C321.139,245.241,320.2,244.765,318.98,244.765z"/>
	<path style="fill:#010001;" d="M319.129,233.181c-1.012,0-1.965,0.387-2.828,1.131c-0.835,0.745-1.222,1.698-1.222,2.829
		c0,1.22,0.387,2.263,1.222,2.919c0.713,0.685,1.666,1.042,2.798,1.042c1.042,0,1.965-0.387,2.828-1.042
		c0.745-0.656,1.132-1.699,1.132-2.919c0-1.31-0.387-2.263-1.22-2.918C321.005,233.568,320.141,233.181,319.129,233.181z"/>
	<path style="fill:#010001;" d="M355.218,269.54l-8.159-12.864l4.198-3.842c2.145-1.965,3.276-3.484,3.276-4.704
		c0-0.953-0.387-1.787-1.042-2.353c-0.655-0.656-1.489-0.953-2.441-0.953c-0.834,0-1.608,0.179-2.145,0.655
		c-0.565,0.477-1.575,1.222-2.707,2.442L337,257.3v-19.325c0-1.608-0.211-2.918-0.955-3.752s-1.609-1.221-2.83-1.221
		s-2.391,0.476-3.045,1.399c-0.656,0.953-1.169,2.263-1.169,4.05v34.065c0,1.608,0.558,2.829,1.214,3.663
		c0.654,0.833,1.783,1.221,3.004,1.221c1.042,0,1.832-0.387,2.695-1.221c0.834-0.834,1.088-1.966,1.088-3.573v-6.372l4.494-4.14
		l7.115,11.554c0.953,1.4,1.652,2.353,2.188,2.918c0.566,0.565,1.332,0.744,2.285,0.744c1.131,0,2.065-0.387,2.72-1.131
		c0.655-0.744,1.047-1.697,1.047-3.007c0-0.476-0.086-0.953-0.385-1.4C356.227,271.236,355.784,270.492,355.218,269.54z"/>
	<path style="fill:#010001;" d="M365.998,268.408c-1.222,0-2.264,0.476-3.097,1.311c-0.834,0.833-1.221,1.875-1.221,3.097
		c0,1.398,0.477,2.53,1.31,3.275c0.834,0.745,1.876,1.132,3.097,1.132c1.132,0,2.145-0.388,3.097-1.222
		c0.833-0.744,1.31-1.875,1.31-3.275c0-1.221-0.477-2.263-1.31-3.098C368.261,268.884,367.219,268.408,365.998,268.408z"/>
	<path style="fill:#010001;" d="M402.415,263.911c-0.833,0-1.488,0.268-2.054,0.745s-1.132,1.221-1.608,2.055
		c-0.834,1.489-1.876,2.621-3.008,3.365c-1.131,0.744-2.531,1.132-4.139,1.132c-1.22,0-2.263-0.179-3.274-0.656
		c-1.013-0.477-1.877-1.131-2.532-1.965c-0.655-0.834-1.221-1.965-1.608-3.186c-0.386-1.221-0.565-2.62-0.565-4.139
		c0-3.187,0.744-5.718,2.144-7.594c1.399-1.875,3.365-2.71,5.718-2.71c1.607,0,3.006,0.388,4.049,1.132
		c1.043,0.744,2.055,1.876,3.097,3.365c0.565,0.745,1.042,1.311,1.489,1.698c0.476,0.387,1.042,0.477,1.697,0.477
		c1.042,0,1.876-0.388,2.621-1.043c0.745-0.655,1.042-1.489,1.042-2.44c0-0.954-0.268-1.967-0.952-3.009
		c-0.656-1.131-1.608-2.054-2.71-3.097c-1.221-0.952-2.62-1.696-4.407-2.352c-1.697-0.567-3.663-0.953-5.717-0.953
		c-3.276,0-6.194,0.655-8.635,2.054c-2.441,1.4-4.228,3.276-5.539,5.808c-1.221,2.53-1.877,5.449-1.877,8.725
		c0,4.883,1.401,8.725,4.14,11.553c2.71,2.918,6.581,4.317,11.553,4.317c2.353,0,4.407-0.268,6.284-0.953
		c1.876-0.656,3.365-1.4,4.586-2.442c1.22-1.042,2.144-2.054,2.709-3.187c0.566-1.131,0.953-2.144,0.953-3.185
		c0-0.835-0.268-1.608-0.953-2.353C404.202,264.298,403.339,263.911,402.415,263.911z"/>
	<path style="fill:#010001;" d="M435.915,249.261c-1.4-1.399-3.097-2.531-5.063-3.364c-1.965-0.744-4.139-1.132-6.581-1.132
		c-2.353,0-4.585,0.388-6.461,1.132c-1.966,0.745-3.663,1.876-5.062,3.275c-1.399,1.4-2.442,3.097-3.187,5.151
		c-0.744,1.965-1.131,4.229-1.131,6.67c0,2.442,0.387,4.586,1.131,6.581c0.745,1.966,1.787,3.663,3.187,5.152
		c1.399,1.4,3.096,2.531,4.973,3.365c1.965,0.745,4.139,1.132,6.462,1.132c2.441,0,4.585-0.388,6.581-1.132
		c1.965-0.745,3.662-1.876,5.062-3.275c1.399-1.4,2.442-3.188,3.186-5.152c0.745-1.965,1.131-4.228,1.131-6.58
		c0-2.442-0.386-4.586-1.131-6.582C438.356,252.478,437.315,250.78,435.915,249.261z M429.989,268.616
		c-1.399,1.787-3.365,2.711-5.806,2.711c-1.608,0-3.009-0.389-4.14-1.222c-1.221-0.834-2.055-2.055-2.71-3.573
		c-0.654-1.608-0.952-3.365-0.952-5.449c0-2.055,0.268-3.931,0.952-5.539c0.656-1.608,1.608-2.828,2.71-3.573
		c1.221-0.834,2.531-1.221,4.14-1.221c2.441,0,4.316,0.952,5.806,2.71c1.4,1.786,2.145,4.317,2.145,7.593
		C432.162,264.298,431.508,266.741,429.989,268.616z"/>
	<path style="fill:#010001;" d="M488.082,249.827c-0.745-1.608-1.874-2.829-3.482-3.663c-1.608-0.834-3.438-1.31-5.582-1.31
		c-1.875,0-3.549,0.387-5.038,1.22c-1.489,0.745-2.998,1.965-4.308,3.664c-0.952-1.608-2.137-2.83-3.567-3.664
		c-1.399-0.744-3.184-1.22-5.148-1.22s-3.817,0.387-5.395,1.131c-1.608,0.744-2.561,1.966-4.561,3.662v-0.744
		c0-1.31-0.231-2.262-0.975-3.007c-0.745-0.744-1.62-1.132-2.632-1.132c-1.131,0-1.876,0.388-2.53,1.132
		c-0.655,0.745-0.863,1.876-0.863,3.364v22.811c0,1.696,0.246,2.917,0.991,3.751c0.744,0.834,1.717,1.31,2.937,1.31
		c1.222,0,2.23-0.476,2.974-1.31c0.745-0.833,1.097-2.055,1.097-3.751v-10.78c0-3.364,0.385-5.925,1.22-7.683
		c0.833-1.787,2.53-2.709,5.15-2.709c1.31,0,2.263,0.387,2.918,1.042c0.565,0.745,1.153,1.608,1.332,2.71
		c0.089,1.131,0.38,2.62,0.38,4.705v12.774c0,1.698,0.185,2.918,0.93,3.752c0.744,0.833,1.597,1.222,2.818,1.222
		s2.321-0.388,3.065-1.222c0.744-0.834,1.188-2.054,1.188-3.752v-10.66c0-3.365,0.16-5.807,0.726-7.117
		c0.566-1.042,1.168-1.875,2.092-2.532c0.952-0.654,1.938-0.952,2.98-0.952c1.31,0,2.25,0.387,2.905,1.042
		c0.655,0.654,0.991,1.607,1.17,2.62c0.179,1.042,0.128,2.441,0.128,4.139v13.43c0,1.697,0.431,2.918,1.176,3.752
		c0.744,0.834,1.809,1.311,3.03,1.311s2.091-0.388,2.835-1.222c0.744-0.834,0.96-2.054,0.96-3.752v-15.573
		C489,253.579,488.734,251.256,488.082,249.827z"/>
</g>
<g>
</g>
<g>
</g>
<g>
</g>
<g>
</g>
<g>
</g>
<g>
</g>
<g>
</g>
<g>
</g>
<g>
</g>
<g>
</g>
<g>
</g>
<g>
</g>
<g>
</g>
<g>
</g>
<g>
</g>
</svg>
